<mxfile host="65bd71144e">
    <diagram id="o__YROQoa_BjfLijMi-F" name="strategy subsystem">
        <mxGraphModel dx="1093" dy="535" grid="0" gridSize="10" guides="1" tooltips="1" connect="1" arrows="1" fold="1" page="1" pageScale="1" pageWidth="1169" pageHeight="827" background="#FFFFFF" math="0" shadow="1">
            <root>
                <mxCell id="0"/>
                <mxCell id="1" parent="0"/>
                <mxCell id="33" value="" style="rounded=0;whiteSpace=wrap;html=1;fontSize=14;fillColor=none;strokeColor=#000000;fontColor=#000000;shadow=1;strokeWidth=3;resizable=0;movable=0;" vertex="1" parent="1">
                    <mxGeometry x="20" y="20" width="1130" height="790" as="geometry"/>
                </mxCell>
                <mxCell id="13" value="http" style="edgeStyle=orthogonalEdgeStyle;shape=connector;rounded=0;html=1;exitX=1;exitY=0.5;exitDx=0;exitDy=0;labelBackgroundColor=none;fontFamily=Helvetica;fontSize=14;fontColor=#000000;endArrow=classic;strokeColor=#000000;" parent="1" source="3" target="12" edge="1">
                    <mxGeometry relative="1" as="geometry"/>
                </mxCell>
                <mxCell id="3" value="django report" style="rounded=0;whiteSpace=wrap;html=1;fillColor=#FFFFFF;fontColor=#000000;strokeColor=#000000;fontSize=14;" parent="1" vertex="1">
                    <mxGeometry x="850" y="173" width="120" height="60" as="geometry"/>
                </mxCell>
                <mxCell id="5" value="image" style="edgeStyle=orthogonalEdgeStyle;html=1;exitX=1;exitY=0.25;exitDx=0;exitDy=0;entryX=0;entryY=0.25;entryDx=0;entryDy=0;fontFamily=Helvetica;fontSize=14;fontColor=#000000;strokeColor=#000000;rounded=0;labelBackgroundColor=none;" parent="1" source="4" target="3" edge="1">
                    <mxGeometry relative="1" as="geometry"/>
                </mxCell>
                <mxCell id="4" value="image engine" style="rounded=0;whiteSpace=wrap;html=1;fontFamily=Helvetica;fontSize=14;fontColor=#000000;strokeColor=#000000;fillColor=#FFFFFF;" parent="1" vertex="1">
                    <mxGeometry x="650" y="173" width="120" height="60" as="geometry"/>
                </mxCell>
                <mxCell id="7" style="edgeStyle=orthogonalEdgeStyle;shape=connector;rounded=0;html=1;entryX=0.5;entryY=1;entryDx=0;entryDy=0;labelBackgroundColor=default;fontFamily=Helvetica;fontSize=14;fontColor=#000000;endArrow=classic;strokeColor=#000000;exitX=0;exitY=0;exitDx=80;exitDy=51.5;exitPerimeter=0;" parent="1" source="20" target="3" edge="1">
                    <mxGeometry relative="1" as="geometry">
                        <mxPoint x="1100" y="303" as="sourcePoint"/>
                    </mxGeometry>
                </mxCell>
                <mxCell id="11" style="edgeStyle=orthogonalEdgeStyle;shape=connector;rounded=0;html=1;exitX=0;exitY=0;exitDx=80;exitDy=52;entryX=0.5;entryY=1;entryDx=0;entryDy=0;labelBackgroundColor=default;fontFamily=Helvetica;fontSize=14;fontColor=#000000;endArrow=classic;strokeColor=#000000;exitPerimeter=0;" parent="1" source="18" target="4" edge="1">
                    <mxGeometry relative="1" as="geometry"/>
                </mxCell>
                <mxCell id="12" value="Customer" style="shape=umlActor;verticalLabelPosition=bottom;verticalAlign=top;html=1;outlineConnect=0;fontFamily=Helvetica;fontSize=14;fontColor=#000000;strokeColor=#000000;fillColor=#FFFFFF;rounded=0;" parent="1" vertex="1">
                    <mxGeometry x="1070" y="173" width="30" height="60" as="geometry"/>
                </mxCell>
                <mxCell id="15" value="json" style="edgeStyle=orthogonalEdgeStyle;shape=connector;rounded=0;html=1;exitX=1;exitY=0.5;exitDx=0;exitDy=0;labelBackgroundColor=none;fontFamily=Helvetica;fontSize=14;fontColor=#000000;endArrow=classic;strokeColor=#000000;entryX=0;entryY=0.25;entryDx=0;entryDy=0;" parent="1" source="29" target="4" edge="1">
                    <mxGeometry relative="1" as="geometry">
                        <mxPoint x="680" y="183" as="targetPoint"/>
                    </mxGeometry>
                </mxCell>
                <mxCell id="26" style="edgeStyle=orthogonalEdgeStyle;shape=connector;html=1;exitX=0.5;exitY=1;exitDx=0;exitDy=0;labelBackgroundColor=none;fontFamily=Helvetica;fontSize=14;fontColor=#000000;endArrow=classic;strokeColor=#000000;" parent="1" source="14" target="21" edge="1">
                    <mxGeometry relative="1" as="geometry"/>
                </mxCell>
                <mxCell id="27" style="edgeStyle=orthogonalEdgeStyle;shape=connector;html=1;exitX=0.25;exitY=1;exitDx=0;exitDy=0;entryX=0.5;entryY=0;entryDx=0;entryDy=0;labelBackgroundColor=none;fontFamily=Helvetica;fontSize=14;fontColor=#000000;endArrow=classic;strokeColor=#000000;" parent="1" source="14" target="24" edge="1">
                    <mxGeometry relative="1" as="geometry">
                        <Array as="points">
                            <mxPoint x="240" y="312"/>
                            <mxPoint x="140" y="312"/>
                        </Array>
                    </mxGeometry>
                </mxCell>
                <mxCell id="30" style="edgeStyle=orthogonalEdgeStyle;shape=connector;html=1;exitX=1;exitY=0.25;exitDx=0;exitDy=0;entryX=0;entryY=0.5;entryDx=0;entryDy=0;labelBackgroundColor=none;fontFamily=Helvetica;fontSize=14;fontColor=#000000;startArrow=none;startFill=0;endArrow=classic;strokeColor=#000000;" parent="1" source="14" target="29" edge="1">
                    <mxGeometry relative="1" as="geometry"/>
                </mxCell>
                <mxCell id="14" value="Data Hub" style="rounded=0;whiteSpace=wrap;html=1;fontFamily=Helvetica;fontSize=14;fontColor=#000000;strokeColor=#000000;fillColor=#FFFFFF;" parent="1" vertex="1">
                    <mxGeometry x="190" y="103" width="200" height="160" as="geometry"/>
                </mxCell>
                <mxCell id="17" style="edgeStyle=orthogonalEdgeStyle;shape=connector;rounded=0;html=1;entryX=0;entryY=0.5;entryDx=0;entryDy=0;labelBackgroundColor=none;fontFamily=Helvetica;fontSize=14;fontColor=#000000;endArrow=classic;strokeColor=#000000;startArrow=classic;startFill=1;" parent="1" source="16" target="14" edge="1">
                    <mxGeometry relative="1" as="geometry"/>
                </mxCell>
                <mxCell id="16" value="MySQL" style="shape=cylinder3;whiteSpace=wrap;html=1;boundedLbl=1;backgroundOutline=1;size=15;fontFamily=Helvetica;fontSize=14;fontColor=#000000;strokeColor=#000000;fillColor=#FFFFFF;rounded=0;" parent="1" vertex="1">
                    <mxGeometry x="80" y="143" width="60" height="80" as="geometry"/>
                </mxCell>
                <mxCell id="18" value="image template" style="shape=note;whiteSpace=wrap;html=1;backgroundOutline=1;darkOpacity=0.05;rounded=0;fontFamily=Helvetica;fontSize=14;fontColor=#000000;strokeColor=#000000;fillColor=#FFFFFF;size=24;" parent="1" vertex="1">
                    <mxGeometry x="600" y="281" width="80" height="80" as="geometry"/>
                </mxCell>
                <mxCell id="20" value="report template" style="shape=note;whiteSpace=wrap;html=1;backgroundOutline=1;darkOpacity=0.05;rounded=0;fontFamily=Helvetica;fontSize=14;fontColor=#000000;strokeColor=#000000;fillColor=#FFFFFF;size=23;" parent="1" vertex="1">
                    <mxGeometry x="800" y="281" width="80" height="80" as="geometry"/>
                </mxCell>
                <mxCell id="23" value="signal" style="edgeStyle=orthogonalEdgeStyle;shape=connector;html=1;exitX=0.5;exitY=1;exitDx=0;exitDy=0;entryX=0;entryY=0.25;entryDx=0;entryDy=0;labelBackgroundColor=none;fontFamily=Helvetica;fontSize=14;fontColor=#000000;endArrow=classic;strokeColor=#000000;" parent="1" source="21" target="22" edge="1">
                    <mxGeometry relative="1" as="geometry"/>
                </mxCell>
                <mxCell id="21" value="strategy" style="rounded=0;whiteSpace=wrap;html=1;fontFamily=Helvetica;fontSize=14;fontColor=#000000;strokeColor=#000000;fillColor=#FFFFFF;" parent="1" vertex="1">
                    <mxGeometry x="230" y="361" width="120" height="60" as="geometry"/>
                </mxCell>
                <mxCell id="28" style="edgeStyle=orthogonalEdgeStyle;shape=connector;html=1;exitX=0.5;exitY=0;exitDx=0;exitDy=0;entryX=0.75;entryY=1;entryDx=0;entryDy=0;labelBackgroundColor=none;fontFamily=Helvetica;fontSize=14;fontColor=#000000;endArrow=classic;strokeColor=#000000;" parent="1" source="22" target="14" edge="1">
                    <mxGeometry relative="1" as="geometry">
                        <Array as="points">
                            <mxPoint x="420" y="311"/>
                            <mxPoint x="340" y="311"/>
                        </Array>
                    </mxGeometry>
                </mxCell>
                <mxCell id="22" value="order center" style="rounded=0;whiteSpace=wrap;html=1;fontFamily=Helvetica;fontSize=14;fontColor=#000000;strokeColor=#000000;fillColor=#FFFFFF;" parent="1" vertex="1">
                    <mxGeometry x="360" y="481" width="120" height="60" as="geometry"/>
                </mxCell>
                <mxCell id="25" style="edgeStyle=orthogonalEdgeStyle;shape=connector;html=1;entryX=0;entryY=0.75;entryDx=0;entryDy=0;labelBackgroundColor=none;fontFamily=Helvetica;fontSize=14;fontColor=#000000;endArrow=classic;strokeColor=#000000;exitX=0.5;exitY=1;exitDx=0;exitDy=0;" parent="1" source="24" target="22" edge="1">
                    <mxGeometry relative="1" as="geometry">
                        <mxPoint x="110" y="435" as="sourcePoint"/>
                    </mxGeometry>
                </mxCell>
                <mxCell id="24" value="RIsk Manager" style="rounded=0;whiteSpace=wrap;html=1;fontFamily=Helvetica;fontSize=14;fontColor=#000000;strokeColor=#000000;fillColor=#FFFFFF;" parent="1" vertex="1">
                    <mxGeometry x="80" y="361" width="120" height="60" as="geometry"/>
                </mxCell>
                <mxCell id="31" style="edgeStyle=orthogonalEdgeStyle;shape=connector;html=1;exitX=0.5;exitY=0;exitDx=0;exitDy=0;entryX=0.5;entryY=0;entryDx=0;entryDy=0;labelBackgroundColor=none;fontFamily=Helvetica;fontSize=14;fontColor=#000000;startArrow=none;startFill=0;endArrow=classic;strokeColor=#000000;" parent="1" source="29" target="3" edge="1">
                    <mxGeometry relative="1" as="geometry">
                        <Array as="points">
                            <mxPoint x="620" y="63"/>
                            <mxPoint x="1220" y="63"/>
                        </Array>
                    </mxGeometry>
                </mxCell>
                <mxCell id="29" value="settle center" style="rounded=0;whiteSpace=wrap;html=1;fontFamily=Helvetica;fontSize=14;fontColor=#000000;strokeColor=#000000;fillColor=#FFFFFF;" parent="1" vertex="1">
                    <mxGeometry x="440" y="113" width="120" height="60" as="geometry"/>
                </mxCell>
                <mxCell id="32" value="cmd" style="endArrow=classic;html=1;labelBackgroundColor=none;fontFamily=Helvetica;fontSize=14;fontColor=#000000;strokeColor=#000000;shape=connector;entryX=0.25;entryY=0;entryDx=0;entryDy=0;" parent="1" target="29" edge="1">
                    <mxGeometry width="50" height="50" relative="1" as="geometry">
                        <mxPoint x="470" y="51" as="sourcePoint"/>
                        <mxPoint x="870" y="383" as="targetPoint"/>
                    </mxGeometry>
                </mxCell>
                <mxCell id="34" value="&lt;h1&gt;架构设计说明&lt;/h1&gt;&lt;pre&gt;report_template定义见template_Report_001&lt;br&gt;image_template&lt;/pre&gt;" style="text;html=1;strokeColor=none;fillColor=none;spacing=5;spacingTop=-20;whiteSpace=wrap;overflow=hidden;rounded=0;shadow=1;fontColor=#000000;" vertex="1" parent="1">
                    <mxGeometry x="520" y="390" width="590" height="380" as="geometry"/>
                </mxCell>
            </root>
        </mxGraphModel>
    </diagram>
</mxfile>